<?xml version="1.0" encoding="UTF-8" standalone="no"?>
<!-- Generator: Adobe Illustrator 16.0.3, SVG Export Plug-In . SVG Version: 6.00 Build 0)  -->

<svg
   xmlns:dc="http://purl.org/dc/elements/1.1/"
   xmlns:cc="http://creativecommons.org/ns#"
   xmlns:rdf="http://www.w3.org/1999/02/22-rdf-syntax-ns#"
   xmlns:svg="http://www.w3.org/2000/svg"
   xmlns="http://www.w3.org/2000/svg"
   xmlns:sodipodi="http://sodipodi.sourceforge.net/DTD/sodipodi-0.dtd"
   xmlns:inkscape="http://www.inkscape.org/namespaces/inkscape"
   version="1.1"
   id="NATRON_LOGO"
   x="0px"
   y="0px"
   width="685.98047"
   height="685.97852"
   viewBox="0 0 685.98047 685.97852"
   xml:space="preserve"
   sodipodi:docname="Maintainer_icon.svg"
   inkscape:version="0.92.3 (unknown)"><metadata
   id="metadata18"><rdf:RDF><cc:Work
       rdf:about=""><dc:format>image/svg+xml</dc:format><dc:type
         rdf:resource="http://purl.org/dc/dcmitype/StillImage" /><dc:title></dc:title></cc:Work></rdf:RDF></metadata><defs
   id="defs16">
	

		
		
		
		
	</defs><sodipodi:namedview
   pagecolor="#ffffff"
   bordercolor="#666666"
   borderopacity="1"
   objecttolerance="10"
   gridtolerance="10"
   guidetolerance="10"
   inkscape:pageopacity="0"
   inkscape:pageshadow="2"
   inkscape:window-width="3434"
   inkscape:window-height="1343"
   id="namedview14"
   showgrid="false"
   inkscape:snap-bbox="true"
   inkscape:bbox-paths="true"
   showguides="true"
   inkscape:guide-bbox="true"
   inkscape:bbox-nodes="true"
   inkscape:snap-bbox-edge-midpoints="true"
   inkscape:snap-bbox-midpoints="true"
   inkscape:zoom="0.68846763"
   inkscape:cx="595.87033"
   inkscape:cy="469.03039"
   inkscape:window-x="0"
   inkscape:window-y="49"
   inkscape:window-maximized="1"
   inkscape:current-layer="layer2"
   fit-margin-top="0"
   fit-margin-left="0"
   fit-margin-right="0"
   fit-margin-bottom="0" />

<g
   inkscape:groupmode="layer"
   id="layer2"
   inkscape:label="batch"
   transform="translate(-533.37305,-257.96094)">

<path
   style="opacity:1;vector-effect:none;fill:#808080;fill-opacity:1;stroke:none;stroke-width:1;stroke-linecap:butt;stroke-linejoin:miter;stroke-miterlimit:4;stroke-dasharray:none;stroke-dashoffset:0;stroke-opacity:1"
   d="M 1049.4082,257.96094 533.37305,773.99805 v 169.9414 L 1219.3535,257.96094 Z"
   id="rect828"
   inkscape:connector-curvature="0" /><path
   style="font-style:normal;font-weight:normal;font-size:53.33333206px;line-height:1.25;font-family:sans-serif;letter-spacing:0px;word-spacing:0px;fill:#000000;fill-opacity:1;stroke:none;stroke-width:2.79970956"
   d="m 645.35607,705.87018 c -0.54992,0.54992 -0.95247,1.17846 -1.21024,1.88303 -0.25778,0.70458 -0.37872,1.44417 -0.36153,2.21749 0.0344,0.75613 0.20686,1.51163 0.51618,2.26775 0.32652,0.73896 0.7905,1.40915 1.39197,2.01062 0.60148,0.60148 1.25194,1.06546 1.95651,1.39199 0.72176,0.30931 1.46135,0.4818 2.21748,0.51619 0.75612,0.0344 1.49573,-0.0866 2.21749,-0.36154 0.73894,-0.29214 1.40917,-0.74024 2.01063,-1.3417 0.58428,-0.58428 1.00467,-1.2268 1.26244,-1.93137 0.27496,-0.72175 0.37807,-1.44353 0.30933,-2.16528 -0.0516,-0.73896 -0.23994,-1.46265 -0.56645,-2.16722 -0.32652,-0.70457 -0.7905,-1.35503 -1.39198,-1.95651 -0.60148,-0.60147 -1.27167,-1.06545 -2.01063,-1.39198 -0.72176,-0.34367 -1.45942,-0.534 -2.21555,-0.56838 -0.75614,-0.0344 -1.49573,0.0866 -2.2175,0.36154 -0.70457,0.25778 -1.34105,0.66827 -1.90815,1.23537 z M 745.57805,605.6482 c -0.54991,0.54991 -0.95246,1.17845 -1.21023,1.88302 -0.25778,0.70458 -0.37872,1.44417 -0.36153,2.21748 0.0344,0.75614 0.20685,1.51164 0.51618,2.26776 0.32653,0.73895 0.79049,1.40916 1.39197,2.01063 0.60148,0.60148 1.25194,1.06545 1.9565,1.39198 0.72176,0.30932 1.46136,0.4818 2.21749,0.51619 0.75612,0.0344 1.49572,-0.0866 2.2175,-0.36154 0.73893,-0.29214 1.40915,-0.74023 2.01063,-1.3417 0.58427,-0.58428 1.00465,-1.22679 1.26243,-1.93136 0.27496,-0.72177 0.37807,-1.44354 0.30933,-2.16529 -0.0516,-0.73895 -0.23995,-1.46265 -0.56646,-2.16722 -0.32651,-0.70457 -0.7905,-1.35503 -1.39198,-1.95651 -0.60147,-0.60147 -1.27167,-1.06544 -2.01062,-1.39197 -0.72177,-0.34368 -1.45943,-0.53401 -2.21555,-0.56839 -0.75614,-0.0344 -1.49573,0.0866 -2.2175,0.36154 -0.70456,0.25778 -1.34105,0.66827 -1.90816,1.23538 z M 975.61498,376.43872 c -0.0172,0.36089 -0.13814,0.84271 -0.36154,1.44417 -0.2234,0.5671 -0.59224,1.26116 -1.10777,2.08603 -0.49837,0.80769 -1.16858,1.73567 -2.01063,2.78394 -0.82486,1.0311 -1.84801,2.15736 -3.06813,3.37748 l 4.02125,4.02125 3.55726,-3.86659 c 0.36088,0.42961 0.74754,0.88373 1.15996,1.36491 0.41237,0.44687 0.81694,0.88694 1.21219,1.31655 0.39519,0.4297 0.7641,0.83411 1.1078,1.21217 l 0.92799,0.92799 3.50505,3.50505 c -0.89362,0.41246 -1.8117,0.90222 -2.75688,1.4693 -0.94517,0.53275 -1.90687,1.28823 -2.8864,2.26776 -1.95907,1.95907 -3.37876,4.11643 -4.25519,6.47073 -0.85924,2.33715 -1.21024,4.73444 -1.05557,7.19187 0.17185,2.44024 0.84206,4.87921 2.01061,7.31944 1.16858,2.40589 2.81833,4.6743 4.94924,6.80521 2.045,2.045 4.1508,3.63523 6.31608,4.76944 2.16529,1.1342 4.29492,1.82031 6.39147,2.0609 2.09655,0.20621 4.11512,-0.0238 6.05702,-0.69407 1.92471,-0.68739 3.67751,-1.82158 5.25851,-3.4026 1.3061,-1.30604 2.3292,-2.82883 3.0682,-4.56449 0.7733,-1.73568 1.1342,-3.79785 1.0826,-6.18655 l 0.05,-0.0503 2.7337,2.16528 10.028,-10.02799 -4.0212,-4.02126 -3.275,3.58432 c -0.3609,-0.42961 -0.7476,-0.86786 -1.16,-1.31462 -0.4125,-0.48115 -0.8169,-0.93724 -1.2122,-1.3668 -0.3952,-0.42969 -0.7721,-0.82617 -1.1329,-1.18706 -0.3437,-0.37813 -0.6451,-0.69538 -0.9029,-0.95315 l -31.36958,-31.36964 z m 59.90692,-59.90694 c -0.017,0.36081 -0.1381,0.84265 -0.3615,1.44416 -0.2234,0.56709 -0.5941,1.26303 -1.1097,2.08792 -0.4983,0.80767 -1.1685,1.73566 -2.0106,2.78397 -0.8249,1.0311 -1.846,2.15536 -3.0662,3.37554 l 4.0212,4.02125 3.5573,-3.86659 c 0.3609,0.42961 0.7456,0.88564 1.1581,1.36677 0.4124,0.44687 0.8188,0.8851 1.2141,1.31464 0.3952,0.4297 0.7641,0.83411 1.1077,1.21225 l 0.928,0.92798 3.5051,3.50505 c -0.8936,0.41243 -1.8117,0.90214 -2.7569,1.46924 -0.9452,0.53281 -1.9088,1.29017 -2.8883,2.26972 -1.9591,1.95911 -3.3769,4.11452 -4.2533,6.46879 -0.8592,2.33716 -1.2102,4.73441 -1.0555,7.19184 0.1718,2.44031 0.8401,4.88118 2.0086,7.32141 1.1686,2.40589 2.8184,4.67429 4.9493,6.8052 2.045,2.045 4.1508,3.63524 6.316,4.76944 2.1653,1.1342 4.295,1.82031 6.3915,2.06093 2.0966,0.20617 4.1171,-0.0258 6.0589,-0.69598 1.9248,-0.68745 3.6776,-1.82162 5.2586,-3.4026 1.3061,-1.30611 2.3273,-2.82699 3.0663,-4.56266 0.7732,-1.73561 1.1342,-3.79783 1.0825,-6.18647 l 0.052,-0.0523 2.7337,2.16529 10.0261,-10.02606 -4.0213,-4.02126 -3.2731,3.5824 c -0.3608,-0.42961 -0.7475,-0.86786 -1.16,-1.31461 -0.4124,-0.48116 -0.8169,-0.93725 -1.2122,-1.36681 -0.3951,-0.42969 -0.7739,-0.82426 -1.1348,-1.18515 -0.3436,-0.37813 -0.6431,-0.69728 -0.9009,-0.95506 l -31.3696,-31.36964 z m 30.1324,-26.06084 c -0.6702,0.67023 -1.1084,1.40184 -1.3147,2.19237 -0.2061,0.79043 -0.2418,1.57968 -0.1044,2.37022 0.1375,0.75614 0.423,1.48586 0.8527,2.19034 0.4296,0.7046 0.953,1.31534 1.5717,1.83087 l 23.7409,19.76983 3.5824,-3.58236 -19.7699,-23.74089 c -0.5156,-0.61858 -1.1183,-1.15003 -1.8057,-1.59688 -0.6874,-0.44682 -1.4092,-0.74022 -2.1653,-0.8777 -0.7733,-0.15466 -1.5545,-0.12699 -2.3451,0.0793 -0.7905,0.20624 -1.538,0.66037 -2.2426,1.36494 z m -502.42458,504.12586 4.07345,4.07346 3.84145,-4.15079 c 0.18903,0.25777 0.43695,0.57696 0.74626,0.95504 0.32645,0.36095 0.69727,0.76345 1.1097,1.21025 0.39519,0.4297 0.81565,0.88565 1.26246,1.36683 0.44673,0.48124 0.91075,0.9611 1.39192,1.44227 l 19.92647,20.54513 c 1.04821,1.08271 1.78594,2.01063 2.21556,2.78393 0.42961,0.77332 0.62595,1.46932 0.59158,2.08798 -0.0172,0.60147 -0.21352,1.17843 -0.59157,1.72836 -0.37807,0.54991 -0.84207,1.13291 -1.39197,1.75156 l 3.47993,3.47992 12.03861,-12.03861 -4.07345,-4.07345 -3.84145,4.15078 c -0.18903,-0.25776 -0.44678,-0.56713 -0.77334,-0.92797 -0.30933,-0.37806 -0.6603,-0.78065 -1.05561,-1.21022 -0.39525,-0.46397 -0.82554,-0.9299 -1.28953,-1.39389 -0.44672,-0.48123 -0.91073,-0.96108 -1.39193,-1.44228 l -9.45962,-9.61424 c -1.58094,-1.61544 -3.25685,-3.27467 -5.02661,-4.97626 -1.77003,-1.7013 -3.66963,-3.51363 -5.69742,-5.43837 l 0.0522,-0.0522 c 1.54664,0.99674 3.09135,1.94254 4.63799,2.83616 1.54662,0.85924 3.01786,1.64051 4.40982,2.34508 1.39198,0.70458 2.66302,1.32516 3.8144,1.8579 1.15139,0.49835 2.07142,0.88307 2.7588,1.15805 l 24.46199,10.28706 4.9241,-4.9241 -18.12077,-39.72341 0.0503,-0.0503 c 0.84205,0.77333 1.75412,1.61412 2.73367,2.5249 0.97953,0.87643 1.91354,1.72704 2.80715,2.55194 0.91086,0.80762 1.73756,1.54731 2.47655,2.21747 0.72176,0.65304 1.24529,1.12495 1.57174,1.41714 l 11.62683,10.74912 c 1.09983,1.03109 1.86329,1.93329 2.29288,2.70661 0.4468,0.75613 0.64315,1.45213 0.59159,2.08797 -0.0344,0.61866 -0.2466,1.21152 -0.64184,1.77862 -0.39527,0.56711 -0.86913,1.15998 -1.41905,1.77865 l 3.47993,3.47992 14.66791,-14.66791 -4.07345,-4.07345 -3.81632,4.12565 c -0.18903,-0.25776 -0.43688,-0.57703 -0.74627,-0.95505 -0.30933,-0.37806 -0.66029,-0.78064 -1.0556,-1.21022 -0.41235,-0.44687 -0.85254,-0.90289 -1.31653,-1.36688 -0.44672,-0.48123 -0.91866,-0.95317 -1.4171,-1.41711 l -21.03426,-19.43733 c -1.09982,-1.03108 -1.87311,-1.92345 -2.31994,-2.67956 -0.42961,-0.7733 -0.62596,-1.46928 -0.59159,-2.08794 0.0516,-0.63584 0.26379,-1.22871 0.64185,-1.77863 0.39526,-0.5671 0.87708,-1.16793 1.44417,-1.80376 l -3.47993,-3.47994 -12.19135,12.19136 13.66065,29.95446 c 0.6874,1.58101 1.40917,3.14353 2.16531,4.69018 0.75612,1.51227 1.52149,3.10251 2.2948,4.76943 l -0.0522,0.0522 c -0.58427,-0.30931 -1.33976,-0.68802 -2.26775,-1.13483 -0.92798,-0.48117 -1.9174,-0.97095 -2.96567,-1.4693 -1.04828,-0.49835 -2.10515,-0.98813 -3.1706,-1.46931 -1.04828,-0.49836 -2.00204,-0.93657 -2.86129,-1.31464 l -28.43102,-12.45041 z m 297.34069,-297.3407 4.07346,4.07346 3.81439,-4.12372 c 0.18903,0.25776 0.43886,0.57504 0.74818,0.95311 0.32645,0.36095 0.69536,0.76536 1.10779,1.21216 0.39519,0.42969 0.81756,0.88374 1.26437,1.36491 l 1.4171,1.4171 20.36338,20.10821 c 1.06547,1.06546 1.81308,1.98351 2.24264,2.75687 0.4296,0.77333 0.63583,1.47919 0.61865,2.11502 -0.0172,0.60148 -0.22342,1.18447 -0.61866,1.75159 -0.39526,0.53272 -0.86718,1.10776 -1.4171,1.72643 l 3.47993,3.47992 12.03669,-12.03669 -4.07345,-4.07345 -3.81439,4.12371 c -0.18903,-0.25776 -0.44677,-0.56712 -0.77335,-0.92795 -0.30933,-0.37806 -0.6603,-0.78065 -1.0556,-1.21023 -0.41236,-0.44686 -0.85254,-0.90289 -1.31653,-1.36688 -0.44672,-0.48123 -0.9089,-0.96292 -1.3901,-1.44412 l -16.41943,-16.26482 0.0503,-0.0503 c 2.50898,0.4468 4.78726,0.7978 6.83226,1.05557 l 38.45903,4.69212 4.48525,-4.48525 -29.41316,-29.41315 c -1.06545,-1.06545 -1.81295,-1.98361 -2.24261,-2.75688 -0.42961,-0.77331 -0.6339,-1.46135 -0.61673,-2.06282 0.0344,-0.61866 0.23866,-1.20358 0.61673,-1.7535 0.37807,-0.54991 0.85194,-1.1428 1.41903,-1.77862 l -3.47993,-3.47994 -12.01348,12.01349 4.07345,4.07346 3.81632,-4.12565 c 0.18903,0.25776 0.43694,0.57696 0.74625,0.95504 0.32645,0.36095 0.69727,0.76345 1.1097,1.21025 0.39519,0.4297 0.81565,0.88565 1.26246,1.36682 l 1.4171,1.4171 16.75587,16.75588 -0.0521,0.0521 c -1.01391,-0.18903 -2.21749,-0.39718 -3.60947,-0.62059 -1.39197,-0.25776 -3.10122,-0.5076 -5.12903,-0.74818 l -36.50066,-4.22613 z M 701.80827,663.90609 c 0.46398,0.87642 0.8586,1.92535 1.18511,3.14547 0.3437,1.20294 0.52607,2.4482 0.54324,3.73707 0.0344,1.27167 -0.12221,2.52681 -0.46591,3.76411 -0.36089,1.22012 -0.98748,2.29483 -1.8811,3.2228 l 4.40791,4.40791 3.55736,-3.66158 12.65728,12.81192 c 1.46072,1.46072 2.8527,2.6108 4.17593,3.45286 1.30605,0.82488 2.54143,1.4098 3.71,1.75351 1.18574,0.3265 2.28622,0.46332 3.30013,0.41179 1.01389,-0.0859 1.94983,-0.30009 2.80907,-0.6438 0.87643,-0.36088 1.66757,-0.80704 2.37216,-1.33977 0.73894,-0.53272 1.4012,-1.09187 1.98549,-1.67616 0.48117,-0.48117 1.04827,-1.11573 1.7013,-1.90625 0.65309,-0.79041 1.236,-1.80568 1.75156,-3.04298 0.51556,-1.23731 0.86849,-2.72444 1.05751,-4.46012 0.18903,-1.73566 0.0602,-3.78796 -0.38665,-6.15948 l -4.92412,0.1798 c 0.20623,1.20294 0.28357,2.2598 0.23203,3.1706 -0.0688,0.89361 -0.20366,1.66693 -0.40988,2.31996 -0.20623,0.61865 -0.44809,1.13419 -0.72306,1.54662 -0.25778,0.39525 -0.49963,0.70459 -0.72304,0.928 -0.67021,0.6702 -1.36427,1.07469 -2.08603,1.21216 -0.72176,0.10312 -1.44546,0.0337 -2.16723,-0.20685 -0.72176,-0.27496 -1.42568,-0.66957 -2.11309,-1.18511 -0.68731,-0.54999 -1.33977,-1.13485 -1.95842,-1.7535 l -0.72112,-0.72113 -2.11502,-2.11501 c -0.97947,-1.01398 -2.28619,-2.33653 -3.91875,-3.96909 -1.63249,-1.66701 -3.68487,-3.75488 -6.15955,-6.26379 l 6.59832,-6.85739 -4.07152,-4.07153 -6.72786,6.72786 -6.60023,-6.65057 z m -66.83979,78.38929 c -1.54664,1.54664 -2.82757,3.16867 -3.84147,4.86997 -1.03108,1.68412 -1.74296,3.34375 -2.13822,4.97632 -0.39524,1.59819 -0.45669,3.11903 -0.18172,4.56256 0.29214,1.42634 0.9544,2.6557 1.98548,3.68679 0.49837,0.49836 1.03173,0.89299 1.59884,1.18511 0.58429,0.27495 1.17522,0.43758 1.7767,0.48912 0.58428,0.0344 1.18511,-0.0509 1.80377,-0.25711 0.60147,-0.22341 1.16856,-0.58429 1.7013,-1.08266 0.61866,-0.61865 1.04892,-1.25513 1.28951,-1.90815 0.24058,-0.65304 0.35163,-1.27964 0.33445,-1.8811 -0.0344,-0.61867 -0.16927,-1.18577 -0.40986,-1.7013 -0.25778,-0.53274 -0.57697,-0.98685 -0.95504,-1.36492 -0.25777,-0.25777 -0.61864,-0.53533 -1.08265,-0.82743 -0.44673,-0.30941 -0.95441,-0.47195 -1.52149,-0.48914 -0.0172,-0.91078 0.15529,-1.80504 0.51618,-2.68148 0.36089,-0.87642 0.8863,-1.69141 1.5737,-2.44754 0.70451,-0.73902 1.41643,-1.22875 2.13823,-1.46931 0.72175,-0.2406 1.44352,-0.29214 2.16528,-0.15466 0.72176,0.13747 1.44353,0.44681 2.16529,0.92798 0.70459,0.46398 1.40851,1.04892 2.11309,1.7535 l 2.75882,2.75881 c -1.13414,1.23738 -2.20095,2.54207 -3.19768,3.91686 -0.99672,1.37478 -1.87121,2.78458 -2.62734,4.22811 -0.73894,1.42634 -1.32388,2.86792 -1.75351,4.32864 -0.42961,1.46072 -0.64378,2.8963 -0.64378,4.30546 0.0172,1.39196 0.27497,2.73238 0.77332,4.02124 0.49836,1.28887 1.3054,2.49245 2.42241,3.60946 1.01391,1.01392 2.11245,1.78723 3.29822,2.31996 1.16857,0.51555 2.37214,0.79114 3.60945,0.82551 1.25449,0.0172 2.50168,-0.25046 3.73899,-0.80038 1.2545,-0.53273 2.44819,-1.36555 3.5824,-2.49975 1.39198,-1.39198 2.49052,-2.99016 3.29821,-4.79457 0.82486,-1.78722 1.23922,-3.88312 1.23922,-6.28901 l 0.0521,-0.0521 c 0.46407,0.42956 0.87451,0.80832 1.23538,1.13484 0.36088,0.29215 0.82487,0.65302 1.39198,1.08264 l 9.97581,-9.97581 -4.02125,-4.02125 -3.24793,3.55724 c -0.36088,-0.42961 -0.74751,-0.86786 -1.16001,-1.31461 -0.41243,-0.48115 -0.82495,-0.92918 -1.23739,-1.34161 -0.39519,-0.4297 -0.77392,-0.82427 -1.13481,-1.18515 -0.34362,-0.37814 -0.64319,-0.69722 -0.90096,-0.95499 l -2.37023,-2.37023 c -0.67013,-0.70464 -1.31653,-1.36688 -1.93518,-1.98553 l -1.95843,-1.95843 c -0.67014,-0.70465 -1.45337,-1.50371 -2.34698,-2.39733 -1.75285,-1.75284 -3.48594,-3.04169 -5.20443,-3.86658 -1.7013,-0.84206 -3.3867,-1.2545 -5.05363,-1.2373 -1.64974,0 -3.28359,0.41244 -4.89896,1.23731 -1.5982,0.80769 -3.16867,1.98548 -4.71531,3.53212 z m 51.6325,-51.6325 c -0.53274,0.53274 -1.0582,1.2128 -1.5737,2.03769 -0.49837,0.8077 -0.96236,1.70002 -1.39197,2.67956 -0.42962,0.94517 -0.79845,1.93265 -1.10778,2.96373 -0.29216,1.01392 -0.49837,1.97756 -0.61867,2.88834 l -0.0773,0.0773 -2.83614,-2.37215 -2.60415,2.60415 c -0.0172,0.36089 -0.13619,0.84078 -0.35958,1.44224 -0.22342,0.5671 -0.59418,1.26309 -1.10972,2.08796 -0.49835,0.80769 -1.16857,1.73567 -2.01063,2.78394 -0.82487,1.03109 -1.848,2.15734 -3.06813,3.37747 l 3.99612,3.99612 3.55726,-3.8666 c 0.70459,0.87643 1.43623,1.72709 2.19236,2.55196 0.75606,0.79057 1.45207,1.50242 2.08791,2.13826 l 8.89316,8.89316 c 0.70457,0.70457 1.3232,1.37482 1.85598,2.0106 0.51556,0.61865 0.87643,1.23731 1.08263,1.85597 0.20624,0.61866 0.2043,1.25514 -0.002,1.90816 -0.18903,0.63584 -0.65107,1.32387 -1.39003,2.06283 l 3.42773,3.42773 13.8424,-13.8424 -4.02126,-4.02125 -3.27308,3.5824 c -0.36088,-0.42961 -0.74751,-0.86786 -1.16,-1.31462 -0.41242,-0.48116 -0.81689,-0.93724 -1.2122,-1.3668 -0.39518,-0.4297 -0.77392,-0.82427 -1.1348,-1.18516 -0.34363,-0.37813 -0.64503,-0.69537 -0.90281,-0.95315 l -11.95936,-11.95936 c 0.0688,-1.1342 0.33445,-2.31199 0.79845,-3.53212 0.48117,-1.23731 1.17909,-2.312 2.08989,-3.22281 1.46071,-1.4607 3.07479,-1.99215 4.84483,-1.5969 1.77003,0.39525 3.82426,1.74362 6.16141,4.04638 l 7.5515,7.50115 c 0.70457,0.70457 1.32327,1.37475 1.85599,2.01059 0.51549,0.61872 0.87643,1.23731 1.08265,1.85595 0.20622,0.61868 0.20622,1.25322 0,1.90624 -0.18904,0.63584 -0.65109,1.32388 -1.39004,2.06283 l 3.42773,3.42773 13.84239,-13.84239 -4.02125,-4.02126 -3.27501,3.58433 c -0.36088,-0.42961 -0.74751,-0.86786 -1.16,-1.31462 -0.41243,-0.48116 -0.81689,-0.93724 -1.21219,-1.36681 -0.39519,-0.42969 -0.77201,-0.82617 -1.1329,-1.18706 -0.34363,-0.37813 -0.64503,-0.69538 -0.90281,-0.95315 l -7.08745,-7.08745 c -2.02781,-2.02782 -3.94328,-3.61806 -5.74769,-4.76944 -1.80441,-1.15139 -3.54138,-1.83749 -5.2083,-2.0609 -1.64975,-0.24058 -3.26383,-0.0185 -4.84483,0.66892 -1.58101,0.65303 -3.1792,1.78723 -4.79457,3.4026 z m 48.58949,-48.58949 c -1.54664,1.54664 -2.82756,3.16867 -3.84146,4.86996 -1.03109,1.68413 -1.74297,3.34376 -2.13822,4.97633 -0.39526,1.59819 -0.4567,3.11903 -0.18173,4.56256 0.29213,1.42635 0.9544,2.6557 1.98548,3.68678 0.49837,0.49837 1.03173,0.89299 1.59884,1.18512 0.58429,0.27496 1.17522,0.43757 1.7767,0.48912 0.58428,0.0344 1.18511,-0.0509 1.80377,-0.25712 0.60147,-0.2234 1.16856,-0.58429 1.7013,-1.08265 0.61866,-0.61865 1.04891,-1.25513 1.28951,-1.90815 0.24057,-0.65303 0.35162,-1.27963 0.33445,-1.88111 -0.0344,-0.61865 -0.16927,-1.18576 -0.40986,-1.70129 -0.25778,-0.53274 -0.57698,-0.98684 -0.95505,-1.36491 -0.25777,-0.25777 -0.61863,-0.53534 -1.08264,-0.82744 -0.44672,-0.30941 -0.95441,-0.47195 -1.52149,-0.48914 -0.0172,-0.91078 0.15529,-1.80504 0.51617,-2.68147 0.3609,-0.87642 0.8863,-1.69142 1.57371,-2.44756 0.70451,-0.73901 1.41642,-1.22873 2.13823,-1.4693 0.72175,-0.24059 1.44351,-0.29213 2.16528,-0.15467 0.72176,0.13748 1.44353,0.44683 2.16529,0.92798 0.70458,0.464 1.4085,1.04893 2.11309,1.75352 l 2.75881,2.75881 c -1.13413,1.23736 -2.20094,2.54206 -3.19766,3.91685 -0.99673,1.37478 -1.87122,2.78458 -2.62735,4.22811 -0.73895,1.42635 -1.32388,2.86793 -1.75351,4.32864 -0.42962,1.46073 -0.64378,2.8963 -0.64379,4.30546 0.0172,1.39196 0.27498,2.73238 0.77333,4.02124 0.49835,1.28887 1.3054,2.49245 2.42241,3.60946 1.01392,1.01392 2.11246,1.78723 3.29821,2.31997 1.16857,0.51554 2.37215,0.79114 3.60945,0.8255 1.2545,0.0172 2.50168,-0.25046 3.739,-0.80038 1.2545,-0.53273 2.4482,-1.36555 3.5824,-2.49975 1.39197,-1.39197 2.49051,-2.99015 3.2982,-4.79457 0.82486,-1.78722 1.23924,-3.88312 1.23924,-6.28901 l 0.0522,-0.0522 c 0.46407,0.42956 0.87451,0.80832 1.23539,1.13483 0.36088,0.29215 0.82486,0.65304 1.39196,1.08266 l 9.97582,-9.97582 -4.02125,-4.02125 -3.24794,3.55726 c -0.36088,-0.42961 -0.74752,-0.86786 -1.16001,-1.31462 -0.41242,-0.48116 -0.82488,-0.92925 -1.23731,-1.34169 -0.39519,-0.42969 -0.77392,-0.82426 -1.13481,-1.18515 -0.34363,-0.37813 -0.64312,-0.69729 -0.9009,-0.95506 l -2.37022,-2.37022 c -0.67014,-0.70465 -1.31653,-1.36688 -1.93519,-1.98554 l -1.95842,-1.95842 c -0.67015,-0.70466 -1.45337,-1.50372 -2.34699,-2.39733 -1.75284,-1.75285 -3.48593,-3.0417 -5.20443,-3.86658 -1.70129,-0.84207 -3.38669,-1.2545 -5.05362,-1.23731 -1.64974,0 -3.28359,0.41244 -4.89897,1.23732 -1.5982,0.80768 -3.16867,1.98548 -4.7153,3.53211 z m 51.6325,-51.6325 c -0.53274,0.53274 -1.05819,1.2128 -1.5737,2.03769 -0.49838,0.80771 -0.96235,1.70002 -1.39198,2.67956 -0.42962,0.94517 -0.79845,1.93265 -1.10777,2.96373 -0.29216,1.01392 -0.49838,1.97756 -0.61867,2.88834 l -0.0773,0.0773 -2.83615,-2.37214 -2.60415,2.60414 c -0.0172,0.36089 -0.13618,0.84078 -0.35957,1.44225 -0.22341,0.56709 -0.59418,1.26308 -1.10972,2.08796 -0.49836,0.80768 -1.16857,1.73566 -2.01063,2.78393 -0.82487,1.03109 -1.84801,2.15735 -3.06813,3.37748 l 3.99611,3.99611 3.55727,-3.86659 c 0.70459,0.87643 1.43622,1.72708 2.19236,2.55195 0.75606,0.79057 1.45207,1.50242 2.08791,2.13826 l 8.89316,8.89316 c 0.70457,0.70457 1.32327,1.37475 1.85598,2.01059 0.51556,0.61866 0.87643,1.23731 1.08264,1.85598 0.20623,0.61866 0.20429,1.25514 -0.002,1.90816 -0.18903,0.63584 -0.65108,1.32387 -1.39003,2.06283 l 3.42772,3.42773 13.8424,-13.8424 -4.02125,-4.02126 -3.27308,3.5824 c -0.36088,-0.42961 -0.74751,-0.86786 -1.16001,-1.31461 -0.41243,-0.48115 -0.81689,-0.93724 -1.21219,-1.36681 -0.39519,-0.4297 -0.77392,-0.82427 -1.1348,-1.18516 -0.34363,-0.37813 -0.64503,-0.69537 -0.90281,-0.95315 l -11.95936,-11.95936 c 0.0687,-1.1342 0.33445,-2.31199 0.79846,-3.53213 0.48116,-1.2373 1.17908,-2.31199 2.08988,-3.2228 1.46071,-1.4607 3.07479,-1.99215 4.84483,-1.5969 1.77003,0.39525 3.82427,1.74362 6.16141,4.04638 l 7.5515,7.50115 c 0.70457,0.70457 1.32327,1.37475 1.85598,2.01059 0.51549,0.61873 0.87643,1.23731 1.08266,1.85596 0.20622,0.61867 0.20621,1.25322 0,1.90623 -0.18904,0.63584 -0.6511,1.32389 -1.39005,2.06284 l 3.42773,3.42773 13.84239,-13.84239 -4.02125,-4.02126 -3.27501,3.58433 c -0.36087,-0.42961 -0.74751,-0.86786 -1.15999,-1.31463 -0.41243,-0.48116 -0.81689,-0.93724 -1.2122,-1.3668 -0.39519,-0.42969 -0.77201,-0.82618 -1.1329,-1.18706 -0.34362,-0.37813 -0.64503,-0.69538 -0.9028,-0.95315 l -7.08746,-7.08746 c -2.02781,-2.02781 -3.94328,-3.61806 -5.74768,-4.76943 -1.80441,-1.1514 -3.54139,-1.8375 -5.20831,-2.0609 -1.64974,-0.24059 -3.26382,-0.0185 -4.84483,0.66892 -1.58101,0.65302 -3.17919,1.78722 -4.79457,3.4026 z m 27.99409,-27.99409 c -1.99343,1.99343 -3.42106,4.19438 -4.28031,6.60026 -0.84205,2.3887 -1.18511,4.80982 -1.03045,7.26726 0.15467,2.45742 0.76345,4.85471 1.8289,7.19186 1.06547,2.30276 2.52682,4.38277 4.38277,6.23873 2.14811,2.1481 4.39074,3.77207 6.72787,4.87191 2.35433,1.08264 4.7179,1.6577 7.08938,1.72643 2.37152,0.0687 4.68159,-0.36949 6.9328,-1.31464 2.25123,-0.94516 4.34906,-2.38869 6.29096,-4.33059 0.8936,-0.8936 1.76999,-1.94063 2.62927,-3.14353 0.89361,-1.20295 1.64116,-2.56914 2.24263,-4.09859 0.61865,-1.54663 1.03903,-3.27564 1.26244,-5.18316 0.2234,-1.90751 0.13017,-4.01137 -0.28227,-6.31415 l -4.61476,0.12954 c 0.13748,1.34042 0.11965,2.61146 -0.0522,3.8144 -0.18903,1.18574 -0.47258,2.27828 -0.85064,3.27498 -0.36089,0.97955 -0.7991,1.862 -1.31465,2.6525 -0.51554,0.7905 -1.03904,1.45275 -1.57177,1.98548 -1.37479,1.37479 -2.78458,2.28495 -4.22811,2.73176 -1.46071,0.42961 -2.92207,0.499 -4.38278,0.20686 -1.4779,-0.30933 -2.96503,-0.93593 -4.46011,-1.8811 -1.49507,-0.97952 -2.96439,-2.19107 -4.40791,-3.63459 l 17.04007,-17.65871 c -1.68406,-1.71856 -3.34181,-3.06686 -4.97439,-4.04639 -1.61536,-0.99673 -3.17982,-1.70066 -4.6921,-2.11309 -1.51226,-0.41244 -2.98157,-0.55722 -4.40791,-0.43692 -1.40915,0.10311 -2.75946,0.40255 -4.04833,0.90091 -1.28885,0.46399 -2.50833,1.10048 -3.65972,1.90816 -1.13419,0.79051 -2.18913,1.67488 -3.16867,2.65442 z m 34.05112,-34.05112 c -0.91079,0.91079 -1.58294,1.92405 -2.01257,3.04107 -0.44679,1.09983 -0.74624,2.22415 -0.90091,3.37553 -0.15466,1.11702 -0.19633,2.20954 -0.12758,3.275 0.0859,1.04828 0.18903,1.97626 0.30932,2.78395 l -0.0773,0.0773 -4.76944,-4.30545 -2.60414,2.60414 c -0.0172,0.3609 -0.13812,0.84271 -0.36152,1.44418 -0.22341,0.5671 -0.59224,1.26115 -1.10779,2.08603 -0.49836,0.8077 -1.16856,1.73567 -2.01063,2.78394 -0.82487,1.03109 -1.848,2.15735 -3.06812,3.37747 l 3.99611,3.99611 3.55726,-3.86659 c 0.70459,0.87643 1.43623,1.72709 2.19236,2.55196 0.75606,0.79057 1.45017,1.50433 2.086,2.14016 l 8.89317,8.89317 c 0.70456,0.70456 1.32334,1.37467 1.85597,2.01059 0.51549,0.61873 0.87643,1.23731 1.08266,1.85596 0.20622,0.61867 0.20622,1.25322 0,1.90623 -0.18904,0.63584 -0.65109,1.32389 -1.39004,2.06284 l 3.42773,3.42772 13.84239,-13.84239 -4.02125,-4.02125 -3.27501,3.58432 c -0.36088,-0.42961 -0.74751,-0.86786 -1.16,-1.31462 -0.41242,-0.48116 -0.81689,-0.93724 -1.2122,-1.3668 -0.39518,-0.4297 -0.77201,-0.82618 -1.13289,-1.18707 -0.34363,-0.37813 -0.64503,-0.69537 -0.90281,-0.95315 l -8.60896,-8.60896 c -0.32651,-0.63584 -0.61006,-1.43493 -0.85066,-2.39728 -0.24058,-0.96234 -0.3873,-1.93393 -0.43885,-2.91347 -0.0516,-1.01391 0.0178,-1.95972 0.20686,-2.83615 0.18904,-0.91079 0.54992,-1.63255 1.08265,-2.16528 0.67026,0.56703 1.31465,0.93785 1.93328,1.1097 0.63586,0.15466 1.22874,0.19634 1.77864,0.12761 0.54993,-0.10312 1.06547,-0.28958 1.54664,-0.56453 0.46399,-0.29215 0.87643,-0.62122 1.23731,-0.9821 0.67022,-0.67022 1.12626,-1.34839 1.36685,-2.03578 0.24058,-0.72176 0.32585,-1.4098 0.25711,-2.06282 -0.0687,-0.65302 -0.24917,-1.26179 -0.54131,-1.8289 -0.30934,-0.58428 -0.67022,-1.08393 -1.08265,-1.49636 -0.77331,-0.77331 -1.56254,-1.30478 -2.37022,-1.5969 -0.79051,-0.30934 -1.57371,-0.42233 -2.34702,-0.3364 -0.77331,0.0516 -1.5288,0.2756 -2.26776,0.67085 -0.72176,0.37808 -1.39197,0.87772 -2.01061,1.49636 z m 73.18101,-73.18101 c -1.99345,1.99345 -3.41915,4.19247 -4.27839,6.59834 -0.84205,2.3887 -1.18705,4.81176 -1.03238,7.26918 0.15466,2.45744 0.76538,4.85279 1.83082,7.18994 1.06548,2.30276 2.52682,4.38278 4.38278,6.23873 2.1481,2.14811 4.39074,3.77207 6.72787,4.87191 2.35434,1.08264 4.71596,1.65964 7.08746,1.72835 2.3715,0.0688 4.6835,-0.3714 6.93472,-1.31656 2.25123,-0.94517 4.34713,-2.38676 6.28902,-4.32865 0.89361,-0.89361 1.77193,-1.94257 2.63121,-3.14547 0.8936,-1.20294 1.64115,-2.56913 2.24262,-4.09858 0.61866,-1.54664 1.03711,-3.27372 1.26051,-5.18124 0.22341,-1.90751 0.13017,-4.01136 -0.28228,-6.31414 l -4.61282,0.12761 c 0.13748,1.34042 0.11966,2.61146 -0.0522,3.81439 -0.18903,1.18574 -0.47257,2.27827 -0.85065,3.275 -0.36087,0.97953 -0.80102,1.86392 -1.31656,2.65441 -0.51554,0.79051 -1.03905,1.45276 -1.57177,1.98548 -1.37479,1.37479 -2.78459,2.28496 -4.22812,2.73177 -1.46072,0.42961 -2.92013,0.49706 -4.38083,0.20492 -1.47791,-0.30934 -2.96504,-0.93593 -4.46012,-1.88109 -1.49508,-0.97953 -2.96438,-2.19108 -4.40791,-3.6346 l 17.03813,-17.65678 c -1.68405,-1.71856 -3.34182,-3.06685 -4.97438,-4.04639 -1.61537,-0.99672 -3.1779,-1.70258 -4.69017,-2.11502 -1.51227,-0.41244 -2.98157,-0.55722 -4.40791,-0.43692 -1.40915,0.10311 -2.75947,0.40255 -4.04833,0.90091 -1.28885,0.46399 -2.50833,1.10048 -3.65971,1.90815 -1.13421,0.79053 -2.19107,1.67682 -3.1706,2.65635 z m 28.45809,-28.45809 c -1.99345,1.99345 -3.41914,4.19246 -4.27839,6.59833 -0.84205,2.38871 -1.18705,4.81177 -1.03237,7.26919 0.15465,2.45744 0.76537,4.85279 1.83082,7.18993 1.06547,2.30277 2.52681,4.38278 4.38277,6.23874 2.14811,2.14811 4.39075,3.77207 6.72787,4.8719 2.35434,1.08265 4.71596,1.65965 7.08746,1.72836 2.37151,0.0688 4.68351,-0.37141 6.93473,-1.31657 2.25123,-0.94516 4.34712,-2.38675 6.28902,-4.32865 0.8936,-0.8936 1.77192,-1.94256 2.63121,-3.14547 0.8936,-1.20293 1.64114,-2.56913 2.24261,-4.09858 0.61867,-1.54664 1.03712,-3.27372 1.26051,-5.18123 0.22341,-1.90751 0.13018,-4.01137 -0.28227,-6.31415 l -4.61283,0.12762 c 0.13748,1.34042 0.11966,2.61145 -0.0522,3.81438 -0.18903,1.18575 -0.47257,2.27827 -0.85065,3.27501 -0.36088,0.97953 -0.80102,1.86391 -1.31657,2.65441 -0.51554,0.7905 -1.03904,1.45275 -1.57177,1.98548 -1.37479,1.37479 -2.78458,2.28496 -4.22811,2.73176 -1.46072,0.42961 -2.92014,0.49707 -4.38084,0.20492 -1.47791,-0.30933 -2.96503,-0.93593 -4.46011,-1.88109 -1.49509,-0.97952 -2.96439,-2.19107 -4.40792,-3.63459 l 17.03813,-17.65678 c -1.68405,-1.71856 -3.34181,-3.06685 -4.97437,-4.0464 -1.61538,-0.99672 -3.1779,-1.70257 -4.69017,-2.11502 -1.51227,-0.41244 -2.98158,-0.55722 -4.40791,-0.43692 -1.40916,0.10311 -2.75947,0.40255 -4.04833,0.90091 -1.28885,0.464 -2.50834,1.10049 -3.65972,1.90816 -1.1342,0.79052 -2.19107,1.67682 -3.1706,2.65635 z m 59.90702,-59.90699 c -1.9935,1.99344 -3.4192,4.19245 -4.2784,6.59833 -0.8421,2.3887 -1.1871,4.81175 -1.0324,7.26919 0.1547,2.45742 0.7634,4.85472 1.8289,7.19185 1.0655,2.30277 2.5268,4.38279 4.3828,6.23874 2.1481,2.14811 4.3907,3.77207 6.7278,4.8719 2.3544,1.08266 4.7179,1.6577 7.0894,1.72643 2.3715,0.0687 4.6816,-0.36947 6.9328,-1.31463 2.2513,-0.94516 4.3491,-2.3887 6.291,-4.33057 0.8936,-0.89362 1.77,-1.94065 2.6293,-3.14355 0.8936,-1.20293 1.6411,-2.56913 2.2426,-4.09859 0.6186,-1.54662 1.039,-3.27563 1.2624,-5.18315 0.2234,-1.90751 0.1302,-4.01137 -0.2822,-6.31416 l -4.6148,0.12955 c 0.1375,1.34042 0.1196,2.61146 -0.052,3.81439 -0.1891,1.18574 -0.4707,2.27634 -0.8487,3.27307 -0.3609,0.97953 -0.8011,1.86391 -1.3166,2.6544 -0.5155,0.79051 -1.039,1.45276 -1.5718,1.9855 -1.3748,1.37479 -2.7846,2.28494 -4.2281,2.73175 -1.4607,0.42962 -2.9221,0.499 -4.3828,0.20686 -1.4779,-0.30934 -2.9631,-0.93786 -4.4582,-1.88302 -1.495,-0.97954 -2.9643,-2.19107 -4.4079,-3.6346 l 17.0382,-17.65677 c -1.6841,-1.71856 -3.3418,-3.06686 -4.9744,-4.0464 -1.6154,-0.99672 -3.1798,-1.70065 -4.6921,-2.11309 -1.5123,-0.41244 -2.9796,-0.55916 -4.406,-0.43886 -1.4091,0.10312 -2.7594,0.40255 -4.0483,0.90091 -1.2889,0.46401 -2.5083,1.10049 -3.6597,1.90817 -1.1342,0.79051 -2.1911,1.67682 -3.1706,2.65635 z M 659.06892,718.86385 c -0.0172,0.36089 -0.13618,0.84077 -0.35958,1.44224 -0.22342,0.5671 -0.59418,1.26309 -1.10972,2.08796 -0.49835,0.80769 -1.16856,1.73567 -2.01063,2.78394 -0.82487,1.03109 -1.848,2.15735 -3.06813,3.37747 l 3.99612,3.99612 3.55726,-3.8666 c 0.70459,0.87643 1.45212,1.74299 2.24262,2.60223 0.80761,0.84212 1.53134,1.58169 2.16718,2.21753 l 8.76363,8.76362 c 0.70457,0.70457 1.32327,1.37475 1.85598,2.0106 0.51548,0.61872 0.87643,1.23731 1.08264,1.85596 0.20623,0.61867 0.2043,1.25515 -0.002,1.90817 -0.18904,0.63584 -0.65108,1.32388 -1.39003,2.06282 l 3.42773,3.42773 13.84239,-13.84239 -4.02125,-4.02125 -3.27309,3.5824 c -0.36087,-0.42961 -0.74751,-0.86786 -1.16,-1.31462 -0.41242,-0.48116 -0.81689,-0.93724 -1.2122,-1.3668 -0.39519,-0.4297 -0.77392,-0.82427 -1.1348,-1.18516 -0.34363,-0.37813 -0.64503,-0.69537 -0.90281,-0.95315 l -18.4301,-18.4301 z M 759.2909,618.64187 c -0.0172,0.36087 -0.13618,0.84077 -0.35957,1.44224 -0.22342,0.56709 -0.59418,1.26308 -1.10972,2.08795 -0.49836,0.80769 -1.16856,1.73567 -2.01063,2.78394 -0.82487,1.03109 -1.84801,2.15735 -3.06813,3.37748 l 3.99611,3.99611 3.55727,-3.86659 c 0.70458,0.87643 1.45212,1.74297 2.24262,2.60222 0.80761,0.84212 1.53135,1.58169 2.16718,2.21752 l 8.76363,8.76363 c 0.70457,0.70457 1.32327,1.37475 1.85599,2.01059 0.51548,0.61872 0.87643,1.23731 1.08263,1.85597 0.20623,0.61867 0.2043,1.25514 -0.002,1.90816 -0.18904,0.63585 -0.65108,1.32388 -1.39003,2.06283 l 3.42773,3.42773 13.84239,-13.84239 -4.02125,-4.02126 -3.27308,3.58241 c -0.36088,-0.42961 -0.74751,-0.86786 -1.16001,-1.31462 -0.41242,-0.48116 -0.81689,-0.93724 -1.21219,-1.36681 -0.39519,-0.4297 -0.77392,-0.82427 -1.13481,-1.18515 -0.34362,-0.37814 -0.64503,-0.69538 -0.9028,-0.95316 l -18.4301,-18.4301 z m 59.49521,-52.74028 c 0.61866,-0.61865 1.28888,-1.08264 2.01063,-1.39197 0.72177,-0.30932 1.51098,-0.41243 2.37023,-0.30932 0.85923,0.0687 1.77928,0.37011 2.75881,0.90284 0.97953,0.53274 2.02652,1.32196 3.14354,2.37023 l -9.71674,9.71674 c -0.75614,-0.99673 -1.3589,-1.99216 -1.8057,-2.98888 -0.44681,-1.0311 -0.70265,-2.02847 -0.77138,-2.99081 -0.0687,-0.96234 0.0503,-1.89034 0.35959,-2.78394 0.32651,-0.9108 0.87771,-1.75157 1.65102,-2.52489 z M 926.02017,458.66753 c 0.61864,-0.61864 1.28886,-1.08262 2.01062,-1.39195 0.72177,-0.30933 1.51098,-0.41244 2.37023,-0.30933 0.85924,0.0687 1.77928,0.37011 2.75881,0.90285 0.97953,0.53272 2.02652,1.32195 3.14355,2.37021 l -9.71868,9.71868 c -0.75615,-0.99671 -1.35696,-1.99409 -1.80377,-2.99081 -0.44682,-1.03109 -0.70459,-2.02653 -0.77331,-2.98888 -0.0688,-0.96234 0.0522,-1.89226 0.36152,-2.78586 0.32651,-0.91081 0.87771,-1.75159 1.65103,-2.52491 z m 28.45809,-28.45809 c 0.61865,-0.61865 1.28887,-1.08263 2.01062,-1.39196 0.72177,-0.30932 1.51099,-0.41244 2.37023,-0.30932 0.85925,0.0687 1.77928,0.37011 2.75881,0.90284 0.97954,0.53272 2.02652,1.32195 3.14355,2.37022 l -9.71868,9.71867 c -0.75614,-0.99671 -1.35696,-1.99408 -1.80377,-2.9908 -0.44682,-1.03109 -0.70458,-2.02654 -0.77331,-2.98888 -0.0687,-0.96235 0.0522,-1.89226 0.36152,-2.78587 0.32651,-0.9108 0.87771,-1.75158 1.65103,-2.5249 z m 59.90504,-59.90506 c 0.6187,-0.61865 1.2889,-1.08263 2.0106,-1.39197 0.7218,-0.30932 1.513,-0.41436 2.3722,-0.31125 0.8592,0.0687 1.7793,0.37012 2.7588,0.90285 0.9795,0.53272 2.0265,1.32194 3.1436,2.37022 l -9.7187,9.71867 c -0.7561,-0.99673 -1.357,-1.99409 -1.8038,-2.99081 -0.4468,-1.0311 -0.7046,-2.02653 -0.7733,-2.98888 -0.069,-0.96234 0.05,-1.89033 0.3596,-2.78394 0.3265,-0.9108 0.8777,-1.75158 1.651,-2.52489 z m -30.59823,31.00811 c 0.77332,-0.77333 1.59818,-1.39197 2.47462,-1.85596 0.85925,-0.48118 1.60678,-0.78062 2.24263,-0.90091 l 15.87818,15.87814 c 0.2749,1.20295 0.259,2.42435 -0.05,3.66166 -0.3094,1.2373 -0.9102,2.30214 -1.8038,3.19574 -1.0139,1.01392 -2.158,1.60679 -3.42966,1.77862 -1.27168,0.17187 -2.57837,0.0509 -3.9188,-0.36153 -1.34041,-0.44678 -2.67095,-1.12688 -3.99418,-2.03768 -1.32323,-0.9108 -2.55064,-1.932 -3.68485,-3.06621 -1.23731,-1.2373 -2.3556,-2.54207 -3.35233,-3.91685 -0.97955,-1.39198 -1.69143,-2.79381 -2.13823,-4.20299 -0.46399,-1.42633 -0.57698,-2.82819 -0.3364,-4.20297 0.22341,-1.39197 0.92735,-2.71456 2.11309,-3.96906 z m 59.90703,-59.90705 c 0.7733,-0.77326 1.5982,-1.39195 2.4745,-1.85586 0.8593,-0.48118 1.6069,-0.78068 2.2427,-0.90091 l 15.8781,15.87814 c 0.275,1.20289 0.2591,2.4243 -0.05,3.66165 -0.3093,1.23727 -0.9101,2.30213 -1.8037,3.19566 -1.0139,1.014 -2.1579,1.60678 -3.4297,1.77867 -1.2717,0.17188 -2.5783,0.0509 -3.9188,-0.36152 -1.3404,-0.44678 -2.6729,-1.12495 -3.9961,-2.03578 -1.3233,-0.91073 -2.5506,-1.932 -3.6848,-3.06621 -1.2373,-1.23731 -2.3537,-2.54396 -3.3504,-3.91877 -0.9796,-1.39195 -1.6934,-2.79189 -2.1402,-4.20104 -0.464,-1.42633 -0.5769,-2.82824 -0.3364,-4.20296 0.2234,-1.39199 0.9293,-2.7165 2.1151,-3.97107 z m -391.22151,413.59749 5.87718,5.92752 c 0.0516,1.1514 -0.10313,2.25379 -0.46399,3.30206 -0.36088,1.04829 -0.95377,1.98229 -1.77864,2.80715 -0.37806,0.37807 -0.80044,0.69721 -1.26437,0.95504 -0.44681,0.24061 -0.91875,0.38732 -1.4171,0.43886 -0.48118,0.0344 -0.9789,-0.035 -1.49444,-0.20685 -0.51555,-0.17185 -1.03109,-0.49708 -1.54663,-0.97825 -0.75614,-0.75614 -1.2459,-1.60678 -1.46931,-2.55195 -0.20622,-0.96235 -0.19827,-1.9696 0.0251,-3.01787 0.2234,-1.08264 0.64572,-2.19107 1.26437,-3.32527 0.61866,-1.1342 1.37416,-2.25057 2.26776,-3.3504 z m 100.22199,-100.22198 5.87717,5.92752 c 0.0516,1.15139 -0.10311,2.25378 -0.46399,3.30206 -0.36088,1.04829 -0.95376,1.98228 -1.77863,2.80715 -0.37806,0.37805 -0.80045,0.69721 -1.26437,0.95504 -0.44681,0.2406 -0.91875,0.38732 -1.41711,0.43885 -0.48117,0.0344 -0.97889,-0.035 -1.49443,-0.20685 -0.51555,-0.17184 -1.0311,-0.49707 -1.54663,-0.97825 -0.75614,-0.75614 -1.2459,-1.60678 -1.46932,-2.55194 -0.2062,-0.96236 -0.19826,-1.9696 0.0251,-3.01788 0.22341,-1.08264 0.64573,-2.19106 1.26438,-3.32527 0.61866,-1.1342 1.37416,-2.25057 2.26776,-3.3504 z M 1096.0708,320.88747 c -0.5155,0.5155 -0.8923,1.11826 -1.1329,1.80572 -0.2578,0.67015 -0.3787,1.37411 -0.3616,2.11308 0.034,0.72175 0.205,1.44348 0.5144,2.16521 0.2921,0.70464 0.7224,1.34106 1.2895,1.90815 0.5671,0.5671 1.1956,1.00536 1.883,1.31466 0.7045,0.29218 1.4183,0.45481 2.1401,0.48921 0.7218,-2e-5 1.4079,-0.11904 2.0609,-0.35964 0.6875,-0.24065 1.2882,-0.61926 1.8038,-1.13487 0.4984,-0.49838 0.8691,-1.09121 1.1097,-1.77863 0.2578,-0.67017 0.3867,-1.36619 0.3867,-2.08798 -0.017,-0.73886 -0.1719,-1.46066 -0.4641,-2.16521 -0.2749,-0.72177 -0.6972,-1.36621 -1.2643,-1.9333 -0.5671,-0.5671 -1.1938,-1.00724 -1.8811,-1.31663 -0.7046,-0.32648 -1.4184,-0.50499 -2.1402,-0.53939 -0.7217,-0.0344 -1.4158,0.0767 -2.086,0.33452 -0.6874,0.24053 -1.3079,0.63514 -1.8579,1.1851 z"
   id="text847"
   inkscape:connector-curvature="0" /><path
   style="opacity:1;vector-effect:none;fill:#ffffff;fill-opacity:1;stroke:none;stroke-width:0.64765924;stroke-linecap:butt;stroke-linejoin:miter;stroke-miterlimit:4;stroke-dasharray:none;stroke-dashoffset:0;stroke-opacity:1"
   d="M 1058.6465,257.96094 533.37305,783.23242 v 9.23828 L 1067.8848,257.96094 Z"
   id="rect830"
   inkscape:connector-curvature="0" /><path
   style="opacity:1;vector-effect:none;fill:#ffffff;fill-opacity:1;stroke:none;stroke-width:0.64765924;stroke-linecap:butt;stroke-linejoin:miter;stroke-miterlimit:4;stroke-dasharray:none;stroke-dashoffset:0;stroke-opacity:1"
   d="M 1200.877,257.96094 533.37305,925.4668 v 9.23828 L 1210.1152,257.96094 Z"
   id="rect830-3"
   inkscape:connector-curvature="0" /></g></svg>