<?xml version="1.0" encoding="UTF-8" standalone="no"?>
<!-- Generator: Adobe Illustrator 16.0.3, SVG Export Plug-In . SVG Version: 6.00 Build 0)  -->

<svg
   xmlns:dc="http://purl.org/dc/elements/1.1/"
   xmlns:cc="http://creativecommons.org/ns#"
   xmlns:rdf="http://www.w3.org/1999/02/22-rdf-syntax-ns#"
   xmlns:svg="http://www.w3.org/2000/svg"
   xmlns="http://www.w3.org/2000/svg"
   xmlns:sodipodi="http://sodipodi.sourceforge.net/DTD/sodipodi-0.dtd"
   xmlns:inkscape="http://www.inkscape.org/namespaces/inkscape"
   version="1.1"
   id="NATRON_LOGO"
   x="0px"
   y="0px"
   width="685.98047"
   height="685.97852"
   viewBox="0 0 685.98047 685.97852"
   xml:space="preserve"
   sodipodi:docname="Maintainer_icon.svg"
   inkscape:version="0.92.3 (unknown)"><metadata
   id="metadata18"><rdf:RDF><cc:Work
       rdf:about=""><dc:format>image/svg+xml</dc:format><dc:type
         rdf:resource="http://purl.org/dc/dcmitype/StillImage" /><dc:title /></cc:Work></rdf:RDF></metadata><defs
   id="defs16">
	

		
		
		
		
	</defs><sodipodi:namedview
   pagecolor="#ffffff"
   bordercolor="#666666"
   borderopacity="1"
   objecttolerance="10"
   gridtolerance="10"
   guidetolerance="10"
   inkscape:pageopacity="0"
   inkscape:pageshadow="2"
   inkscape:window-width="2280"
   inkscape:window-height="1128"
   id="namedview14"
   showgrid="false"
   inkscape:snap-bbox="true"
   inkscape:bbox-paths="true"
   showguides="true"
   inkscape:guide-bbox="true"
   inkscape:bbox-nodes="true"
   inkscape:snap-bbox-edge-midpoints="true"
   inkscape:snap-bbox-midpoints="true"
   inkscape:zoom="0.68846763"
   inkscape:cx="415.03394"
   inkscape:cy="459.4749"
   inkscape:window-x="0"
   inkscape:window-y="49"
   inkscape:window-maximized="0"
   inkscape:current-layer="layer2"
   fit-margin-top="0"
   fit-margin-left="0"
   fit-margin-right="0"
   fit-margin-bottom="0" />

<g
   inkscape:groupmode="layer"
   id="layer2"
   inkscape:label="batch"
   transform="translate(-533.37305,-257.96094)">

<path
   style="opacity:1;vector-effect:none;fill:#808080;fill-opacity:1;stroke:none;stroke-width:1;stroke-linecap:butt;stroke-linejoin:miter;stroke-miterlimit:4;stroke-dasharray:none;stroke-dashoffset:0;stroke-opacity:1"
   d="M 1049.4082,257.96094 533.37305,773.99805 v 169.9414 L 1219.3535,257.96094 Z"
   id="rect828"
   inkscape:connector-curvature="0" /><path
   style="opacity:1;vector-effect:none;fill:#ffffff;fill-opacity:1;stroke:none;stroke-width:0.64765924;stroke-linecap:butt;stroke-linejoin:miter;stroke-miterlimit:4;stroke-dasharray:none;stroke-dashoffset:0;stroke-opacity:1"
   d="M 1058.6465,257.96094 533.37305,783.23242 v 9.23828 L 1067.8848,257.96094 Z"
   id="rect830"
   inkscape:connector-curvature="0" /><path
   style="opacity:1;vector-effect:none;fill:#ffffff;fill-opacity:1;stroke:none;stroke-width:0.64765924;stroke-linecap:butt;stroke-linejoin:miter;stroke-miterlimit:4;stroke-dasharray:none;stroke-dashoffset:0;stroke-opacity:1"
   d="M 1200.877,257.96094 533.37305,925.4668 v 9.23828 L 1210.1152,257.96094 Z"
   id="rect830-3"
   inkscape:connector-curvature="0" /><g
   aria-label="Maintainer Needed !"
   transform="rotate(-45)"
   style="font-style:normal;font-weight:normal;font-size:70.45059967px;line-height:1.25;font-family:sans-serif;letter-spacing:0px;word-spacing:0px;fill:#000000;fill-opacity:1;stroke:none;stroke-width:1.76126516"
   id="text821"><path
     d="m -54.33977,1008.2405 h -9.36993 l -4.227036,-33.04135 -12.610657,22.68509 -12.681108,-22.61464 -4.227036,32.9709 h -9.369933 l 6.833712,-49.31544 h 7.397313 l 12.047052,22.47374 11.976602,-22.47374 h 7.397313 z"
     style="font-style:normal;font-variant:normal;font-weight:bold;font-stretch:normal;font-family:cabin;-inkscape-font-specification:'cabin Bold';stroke-width:1.76126516"
     id="path848" /><path
     d="m -17.273947,1001.759 -0.774957,7.186 h -3.170277 q -5.706498,0 -7.890467,-4.0862 -3.663431,4.0862 -10.778942,4.0862 -4.367937,0 -7.326862,-2.818 -2.888475,-2.8885 -2.888475,-7.74961 0,-3.52253 2.043068,-6.05875 2.113518,-2.60667 5.424696,-3.87478 3.311178,-1.33856 6.340554,-1.97262 3.099826,-0.63405 5.988301,-0.7045 -0.140901,-3.09983 -1.620364,-4.43839 -1.409012,-1.33856 -4.72019,-1.33856 -4.227036,0 -9.651732,2.67712 l -0.774957,-7.11551 q 6.411005,-3.09983 12.822009,-3.09983 12.751559,0 12.751559,14.16057 v 9.51084 q 0,3.80433 0.563605,4.72022 0.563604,0.9158 2.536221,0.9158 z m -12.962911,-2.04304 v -8.03137 q -4.227036,0.21135 -7.467763,1.83171 -3.240728,1.62037 -3.240728,4.50884 0,4.22706 4.72019,4.22706 3.381629,0 5.988301,-2.53624 z"
     style="font-style:normal;font-variant:normal;font-weight:bold;font-stretch:normal;font-family:cabin;-inkscape-font-specification:'cabin Bold';stroke-width:1.76126516"
     id="path850" /><path
     d="m -3.6736803,967.66093 h -8.7358747 v -8.73587 h 8.7358747 z m 0,40.57957 h -8.7358747 v -35.22532 h 8.7358747 z"
     style="font-style:normal;font-variant:normal;font-weight:bold;font-stretch:normal;font-family:cabin;-inkscape-font-specification:'cabin Bold';stroke-width:1.76126516"
     id="path852" /><path
     d="m 35.58382,1008.2405 h -8.735875 v -18.95123 q 0,-4.93154 -1.690814,-7.25641 -1.620364,-2.39532 -5.283795,-2.39532 -4.015684,0 -6.622357,3.02937 v 25.57359 H 4.5151051 v -35.22532 h 8.1722699 l 0.140901,2.11352 q 3.663431,-2.67713 7.749566,-2.67713 15.005978,0 15.005978,16.8377 z"
     style="font-style:normal;font-variant:normal;font-weight:bold;font-stretch:normal;font-family:cabin;-inkscape-font-specification:'cabin Bold';stroke-width:1.76126516"
     id="path854" /><path
     d="m 61.571277,1001.759 -0.774957,7.186 h -6.270103 q -4.64974,0 -7.04506,-2.6771 -2.39532,-2.7476 -2.39532,-6.55194 v -19.51482 h -5.001993 l 0.774957,-7.18596 h 4.227036 v -7.74957 l 8.735874,-0.91586 v 8.66543 h 7.749566 v 7.18596 h -7.749566 v 15.92184 q 0,3.94522 0.774957,4.79062 0.845407,0.8454 4.579289,0.8454 z"
     style="font-style:normal;font-variant:normal;font-weight:bold;font-stretch:normal;font-family:cabin;-inkscape-font-specification:'cabin Bold';stroke-width:1.76126516"
     id="path856" /><path
     d="m 97.483469,1001.759 -0.774957,7.186 h -3.170277 q -5.706499,0 -7.890467,-4.0862 -3.663431,4.0862 -10.778942,4.0862 -4.367937,0 -7.326862,-2.818 -2.888475,-2.8885 -2.888475,-7.74961 0,-3.52253 2.043067,-6.05875 2.113518,-2.60667 5.424697,-3.87478 3.311178,-1.33856 6.340554,-1.97262 3.099826,-0.63405 5.988301,-0.7045 -0.140902,-3.09983 -1.620364,-4.43839 -1.409012,-1.33856 -4.72019,-1.33856 -4.227036,0 -9.651733,2.67712 l -0.774956,-7.11551 q 6.411004,-3.09983 12.822009,-3.09983 12.751559,0 12.751559,14.16057 v 9.51084 q 0,3.80433 0.563604,4.72022 0.563605,0.9158 2.536222,0.9158 z m -12.962911,-2.04304 v -8.03137 q -4.227036,0.21135 -7.467763,1.83171 -3.240728,1.62037 -3.240728,4.50884 0,4.22706 4.72019,4.22706 3.381629,0 5.988301,-2.53624 z"
     style="font-style:normal;font-variant:normal;font-weight:bold;font-stretch:normal;font-family:cabin;-inkscape-font-specification:'cabin Bold';stroke-width:1.76126516"
     id="path858" /><path
     d="m 111.08374,967.66093 h -8.73587 v -8.73587 h 8.73587 z m 0,40.57957 h -8.73587 v -35.22532 h 8.73587 z"
     style="font-style:normal;font-variant:normal;font-weight:bold;font-stretch:normal;font-family:cabin;-inkscape-font-specification:'cabin Bold';stroke-width:1.76126516"
     id="path860" /><path
     d="m 150.34124,1008.2405 h -8.73588 v -18.95123 q 0,-4.93154 -1.69081,-7.25641 -1.62037,-2.39532 -5.2838,-2.39532 -4.01568,0 -6.62235,3.02937 v 25.57359 h -8.73588 v -35.22532 h 8.17227 l 0.1409,2.11352 q 3.66343,-2.67713 7.74957,-2.67713 15.00598,0 15.00598,16.8377 z"
     style="font-style:normal;font-variant:normal;font-weight:bold;font-stretch:normal;font-family:cabin;-inkscape-font-specification:'cabin Bold';stroke-width:1.76126516"
     id="path862" /><path
     d="m 187.94315,992.52999 h -22.75554 q 0.7045,4.57929 3.66343,6.90416 3.02937,2.32485 6.83371,2.32485 2.39532,0 5.49514,-0.8454 3.09983,-0.8454 5.35425,-2.04305 l 0.4227,7.39735 q -5.07244,2.6771 -11.76525,2.6771 -9.15858,0 -14.16057,-5.2134 -4.93154,-5.2133 -4.93154,-13.03332 0,-7.67912 4.50884,-12.96291 4.57929,-5.2838 12.3993,-5.2838 6.76326,0 11.1312,4.22704 4.36793,4.15659 4.36793,11.06074 0,2.11352 -0.5636,4.79064 z m -9.86308,-10.77894 q -1.54992,-2.11351 -4.79065,-2.11351 -3.24072,0 -5.21334,1.90216 -1.97262,1.90217 -2.67712,5.07244 h 14.23102 q 0,-2.74757 -1.54991,-4.86109 z"
     style="font-style:normal;font-variant:normal;font-weight:bold;font-stretch:normal;font-family:cabin;-inkscape-font-specification:'cabin Bold';stroke-width:1.76126516"
     id="path864" /><path
     d="m 214.6175,972.45157 -1.69082,8.24272 h -3.24072 q -2.11352,0 -3.87479,0.98631 -1.76126,0.98631 -2.53622,2.53622 v 24.02368 h -8.73587 v -35.22532 h 8.17227 l 0.21135,3.73388 q 4.15658,-4.29749 9.36993,-4.29749 z"
     style="font-style:normal;font-variant:normal;font-weight:bold;font-stretch:normal;font-family:cabin;-inkscape-font-specification:'cabin Bold';stroke-width:1.76126516"
     id="path866" /><path
     d="m 274.74048,1008.2405 h -7.39732 l -22.54419,-33.81631 v 33.81631 h -9.01768 v -49.31544 h 8.87678 l 21.06473,31.84367 v -31.84367 h 9.01768 z"
     style="font-style:normal;font-variant:normal;font-weight:bold;font-stretch:normal;font-family:cabin;-inkscape-font-specification:'cabin Bold';stroke-width:1.76126516"
     id="path868" /><path
     d="m 313.02048,992.52999 h -22.75554 q 0.7045,4.57929 3.66343,6.90416 3.02937,2.32485 6.83371,2.32485 2.39532,0 5.49514,-0.8454 3.09983,-0.8454 5.35425,-2.04305 l 0.4227,7.39735 q -5.07244,2.6771 -11.76525,2.6771 -9.15858,0 -14.16057,-5.2134 -4.93154,-5.2133 -4.93154,-13.03332 0,-7.67912 4.50884,-12.96291 4.57929,-5.2838 12.3993,-5.2838 6.76326,0 11.1312,4.22704 4.36794,4.15659 4.36794,11.06074 0,2.11352 -0.56361,4.79064 z m -9.86308,-10.77894 q -1.54992,-2.11351 -4.79064,-2.11351 -3.24073,0 -5.21335,1.90216 -1.97261,1.90217 -2.67712,5.07244 h 14.23102 q 0,-2.74757 -1.54991,-4.86109 z"
     style="font-style:normal;font-variant:normal;font-weight:bold;font-stretch:normal;font-family:cabin;-inkscape-font-specification:'cabin Bold';stroke-width:1.76126516"
     id="path870" /><path
     d="m 349.34656,992.52999 h -22.75554 q 0.7045,4.57929 3.66343,6.90416 3.02937,2.32485 6.83371,2.32485 2.39532,0 5.49514,-0.8454 3.09983,-0.8454 5.35425,-2.04305 l 0.4227,7.39735 q -5.07244,2.6771 -11.76525,2.6771 -9.15858,0 -14.16057,-5.2134 -4.93154,-5.2133 -4.93154,-13.03332 0,-7.67912 4.50884,-12.96291 4.57929,-5.2838 12.3993,-5.2838 6.76326,0 11.1312,4.22704 4.36794,4.15659 4.36794,11.06074 0,2.11352 -0.56361,4.79064 z m -9.86308,-10.77894 q -1.54992,-2.11351 -4.79064,-2.11351 -3.24073,0 -5.21335,1.90216 -1.97261,1.90217 -2.67712,5.07244 h 14.23102 q 0,-2.74757 -1.54991,-4.86109 z"
     style="font-style:normal;font-variant:normal;font-weight:bold;font-stretch:normal;font-family:cabin;-inkscape-font-specification:'cabin Bold';stroke-width:1.76126516"
     id="path872" /><path
     d="m 388.06799,1008.2405 h -8.24272 l -0.1409,-1.9726 q -3.87478,2.6771 -8.59497,2.6771 -8.10182,0 -12.68111,-5.2134 -4.57929,-5.28375 -4.57929,-13.03332 0,-7.74957 4.57929,-12.96291 4.57929,-5.2838 12.68111,-5.2838 4.72019,0 8.24272,2.32487 v -19.37391 h 8.73587 z M 371.653,979.63754 q -4.15658,0 -6.5519,3.02937 -2.32487,3.02938 -2.32487,8.03137 0,5.00199 2.32487,8.03137 2.39532,3.02935 6.5519,3.02935 4.08614,0 6.05875,-2.9589 2.04307,-2.95893 2.04307,-8.10182 0,-5.14289 -2.04307,-8.10182 -1.97261,-2.95892 -6.05875,-2.95892 z"
     style="font-style:normal;font-variant:normal;font-weight:bold;font-stretch:normal;font-family:cabin;-inkscape-font-specification:'cabin Bold';stroke-width:1.76126516"
     id="path874" /><path
     d="m 425.85151,992.52999 h -22.75555 q 0.70451,4.57929 3.66343,6.90416 3.02938,2.32485 6.83371,2.32485 2.39532,0 5.49515,-0.8454 3.09982,-0.8454 5.35424,-2.04305 l 0.42271,7.39735 q -5.07245,2.6771 -11.76525,2.6771 -9.15858,0 -14.16057,-5.2134 -4.93155,-5.2133 -4.93155,-13.03332 0,-7.67912 4.50884,-12.96291 4.57929,-5.2838 12.39931,-5.2838 6.76326,0 11.13119,4.22704 4.36794,4.15659 4.36794,11.06074 0,2.11352 -0.5636,4.79064 z m -9.86309,-10.77894 q -1.54991,-2.11351 -4.79064,-2.11351 -3.24073,0 -5.21334,1.90216 -1.97262,1.90217 -2.67713,5.07244 h 14.23102 q 0,-2.74757 -1.54991,-4.86109 z"
     style="font-style:normal;font-variant:normal;font-weight:bold;font-stretch:normal;font-family:cabin;-inkscape-font-specification:'cabin Bold';stroke-width:1.76126516"
     id="path876" /><path
     d="m 464.57294,1008.2405 h -8.24272 l -0.14091,-1.9726 q -3.87478,2.6771 -8.59497,2.6771 -8.10182,0 -12.68111,-5.2134 -4.57929,-5.28375 -4.57929,-13.03332 0,-7.74957 4.57929,-12.96291 4.57929,-5.2838 12.68111,-5.2838 4.72019,0 8.24272,2.32487 v -19.37391 h 8.73588 z m -16.41499,-28.60296 q -4.15659,0 -6.55191,3.02937 -2.32487,3.02938 -2.32487,8.03137 0,5.00199 2.32487,8.03137 2.39532,3.02935 6.55191,3.02935 4.08613,0 6.05875,-2.9589 2.04307,-2.95893 2.04307,-8.10182 0,-5.14289 -2.04307,-8.10182 -1.97262,-2.95892 -6.05875,-2.95892 z"
     style="font-style:normal;font-variant:normal;font-weight:bold;font-stretch:normal;font-family:cabin;-inkscape-font-specification:'cabin Bold';stroke-width:1.76126516"
     id="path878" /><path
     d="m 494.99352,999.50295 h 6.98314 v 8.73755 h -6.98314 z m 0,-42.62123 h 6.98314 v 22.5318 l -0.68799,12.2807 h -5.57275 l -0.7224,-12.2807 z"
     style="stroke-width:1.76126516"
     id="path880" /></g></g></svg>